<svg width="38" height="34" viewBox="0 0 38 34" fill="none" xmlns="http://www.w3.org/2000/svg">
<mask id="path-1-outside-1_2148_1660" maskUnits="userSpaceOnUse" x="0.500122" y="0.499664" width="39" height="34" fill="black">
<rect fill="white" x="0.500122" y="0.499664" width="39" height="34"/>
<path d="M12.96 13.1525L8.34255 17L12.96 20.8475C13.1132 20.973 13.24 21.1276 13.3331 21.3023C13.4262 21.477 13.4838 21.6685 13.5025 21.8656C13.5213 22.0627 13.5008 22.2615 13.4423 22.4507C13.3839 22.6399 13.2885 22.8156 13.1618 22.9677C13.0351 23.1198 12.8795 23.2454 12.704 23.3371C12.5285 23.4288 12.3367 23.4848 12.1394 23.502C11.9422 23.5192 11.7435 23.4971 11.5548 23.4372C11.3661 23.3772 11.1912 23.2804 11.04 23.1525L5.04005 18.1525C4.87106 18.0117 4.7351 17.8355 4.64179 17.6363C4.54849 17.4372 4.50012 17.2199 4.50012 17C4.50012 16.78 4.54849 16.5628 4.64179 16.3636C4.7351 16.1645 4.87106 15.9883 5.04005 15.8475L11.04 10.8475C11.3461 10.5966 11.739 10.4769 12.1329 10.5144C12.5269 10.5519 12.8901 10.7436 13.1434 11.0476C13.3967 11.3517 13.5195 11.7436 13.4852 12.1378C13.4508 12.5321 13.2621 12.8968 12.96 13.1525ZM34.96 15.8475L28.96 10.8475C28.8089 10.7196 28.634 10.6228 28.4453 10.5628C28.2566 10.5028 28.0579 10.4808 27.8607 10.498C27.6634 10.5152 27.4715 10.5712 27.2961 10.6629C27.1206 10.7546 26.965 10.8802 26.8383 11.0323C26.7116 11.1844 26.6162 11.3601 26.5578 11.5493C26.4993 11.7384 26.4788 11.9373 26.4976 12.1344C26.5163 12.3315 26.5739 12.5229 26.667 12.6977C26.7601 12.8724 26.8869 13.027 27.04 13.1525L31.6575 17L27.04 20.8475C26.8869 20.973 26.7601 21.1276 26.667 21.3023C26.5739 21.477 26.5163 21.6685 26.4976 21.8656C26.4788 22.0627 26.4993 22.2615 26.5578 22.4507C26.6162 22.6399 26.7116 22.8156 26.8383 22.9677C26.965 23.1198 27.1206 23.2454 27.2961 23.3371C27.4715 23.4288 27.6634 23.4848 27.8607 23.502C28.0579 23.5192 28.2566 23.4971 28.4453 23.4372C28.634 23.3772 28.8089 23.2804 28.96 23.1525L34.96 18.1525C35.129 18.0117 35.265 17.8355 35.3583 17.6363C35.4516 17.4372 35.5 17.2199 35.5 17C35.5 16.78 35.4516 16.5628 35.3583 16.3636C35.265 16.1645 35.129 15.9883 34.96 15.8475ZM24.5125 4.58999C24.3274 4.52265 24.1308 4.49245 23.9339 4.50112C23.7371 4.50978 23.5439 4.55714 23.3654 4.64048C23.1868 4.72382 23.0265 4.84152 22.8935 4.98686C22.7604 5.13219 22.6573 5.3023 22.59 5.48749L14.59 27.4875C14.4544 27.8613 14.4728 28.2736 14.6411 28.6339C14.8094 28.9942 15.1138 29.2729 15.4875 29.4087C15.6516 29.4693 15.8252 29.5002 16 29.5C16.308 29.5 16.6085 29.4053 16.8608 29.2286C17.1131 29.052 17.3048 28.8019 17.41 28.5125L25.41 6.51249C25.4774 6.32733 25.5076 6.13071 25.4989 5.93388C25.4903 5.73704 25.4429 5.54384 25.3596 5.36531C25.2762 5.18679 25.1585 5.02643 25.0132 4.89339C24.8678 4.76036 24.6977 4.65726 24.5125 4.58999Z"/>
</mask>
<path d="M12.96 13.1525L8.34255 17L12.96 20.8475C13.1132 20.973 13.24 21.1276 13.3331 21.3023C13.4262 21.477 13.4838 21.6685 13.5025 21.8656C13.5213 22.0627 13.5008 22.2615 13.4423 22.4507C13.3839 22.6399 13.2885 22.8156 13.1618 22.9677C13.0351 23.1198 12.8795 23.2454 12.704 23.3371C12.5285 23.4288 12.3367 23.4848 12.1394 23.502C11.9422 23.5192 11.7435 23.4971 11.5548 23.4372C11.3661 23.3772 11.1912 23.2804 11.04 23.1525L5.04005 18.1525C4.87106 18.0117 4.7351 17.8355 4.64179 17.6363C4.54849 17.4372 4.50012 17.2199 4.50012 17C4.50012 16.78 4.54849 16.5628 4.64179 16.3636C4.7351 16.1645 4.87106 15.9883 5.04005 15.8475L11.04 10.8475C11.3461 10.5966 11.739 10.4769 12.1329 10.5144C12.5269 10.5519 12.8901 10.7436 13.1434 11.0476C13.3967 11.3517 13.5195 11.7436 13.4852 12.1378C13.4508 12.5321 13.2621 12.8968 12.96 13.1525ZM34.96 15.8475L28.96 10.8475C28.8089 10.7196 28.634 10.6228 28.4453 10.5628C28.2566 10.5028 28.0579 10.4808 27.8607 10.498C27.6634 10.5152 27.4715 10.5712 27.2961 10.6629C27.1206 10.7546 26.965 10.8802 26.8383 11.0323C26.7116 11.1844 26.6162 11.3601 26.5578 11.5493C26.4993 11.7384 26.4788 11.9373 26.4976 12.1344C26.5163 12.3315 26.5739 12.5229 26.667 12.6977C26.7601 12.8724 26.8869 13.027 27.04 13.1525L31.6575 17L27.04 20.8475C26.8869 20.973 26.7601 21.1276 26.667 21.3023C26.5739 21.477 26.5163 21.6685 26.4976 21.8656C26.4788 22.0627 26.4993 22.2615 26.5578 22.4507C26.6162 22.6399 26.7116 22.8156 26.8383 22.9677C26.965 23.1198 27.1206 23.2454 27.2961 23.3371C27.4715 23.4288 27.6634 23.4848 27.8607 23.502C28.0579 23.5192 28.2566 23.4971 28.4453 23.4372C28.634 23.3772 28.8089 23.2804 28.96 23.1525L34.96 18.1525C35.129 18.0117 35.265 17.8355 35.3583 17.6363C35.4516 17.4372 35.5 17.2199 35.5 17C35.5 16.78 35.4516 16.5628 35.3583 16.3636C35.265 16.1645 35.129 15.9883 34.96 15.8475ZM24.5125 4.58999C24.3274 4.52265 24.1308 4.49245 23.9339 4.50112C23.7371 4.50978 23.5439 4.55714 23.3654 4.64048C23.1868 4.72382 23.0265 4.84152 22.8935 4.98686C22.7604 5.13219 22.6573 5.3023 22.59 5.48749L14.59 27.4875C14.4544 27.8613 14.4728 28.2736 14.6411 28.6339C14.8094 28.9942 15.1138 29.2729 15.4875 29.4087C15.6516 29.4693 15.8252 29.5002 16 29.5C16.308 29.5 16.6085 29.4053 16.8608 29.2286C17.1131 29.052 17.3048 28.8019 17.41 28.5125L25.41 6.51249C25.4774 6.32733 25.5076 6.13071 25.4989 5.93388C25.4903 5.73704 25.4429 5.54384 25.3596 5.36531C25.2762 5.18679 25.1585 5.02643 25.0132 4.89339C24.8678 4.76036 24.6977 4.65726 24.5125 4.58999Z" fill="#82BC4F"/>
<path d="M12.96 13.1525L8.34255 17L12.96 20.8475C13.1132 20.973 13.24 21.1276 13.3331 21.3023C13.4262 21.477 13.4838 21.6685 13.5025 21.8656C13.5213 22.0627 13.5008 22.2615 13.4423 22.4507C13.3839 22.6399 13.2885 22.8156 13.1618 22.9677C13.0351 23.1198 12.8795 23.2454 12.704 23.3371C12.5285 23.4288 12.3367 23.4848 12.1394 23.502C11.9422 23.5192 11.7435 23.4971 11.5548 23.4372C11.3661 23.3772 11.1912 23.2804 11.04 23.1525L5.04005 18.1525C4.87106 18.0117 4.7351 17.8355 4.64179 17.6363C4.54849 17.4372 4.50012 17.2199 4.50012 17C4.50012 16.78 4.54849 16.5628 4.64179 16.3636C4.7351 16.1645 4.87106 15.9883 5.04005 15.8475L11.04 10.8475C11.3461 10.5966 11.739 10.4769 12.1329 10.5144C12.5269 10.5519 12.8901 10.7436 13.1434 11.0476C13.3967 11.3517 13.5195 11.7436 13.4852 12.1378C13.4508 12.5321 13.2621 12.8968 12.96 13.1525ZM34.96 15.8475L28.96 10.8475C28.8089 10.7196 28.634 10.6228 28.4453 10.5628C28.2566 10.5028 28.0579 10.4808 27.8607 10.498C27.6634 10.5152 27.4715 10.5712 27.2961 10.6629C27.1206 10.7546 26.965 10.8802 26.8383 11.0323C26.7116 11.1844 26.6162 11.3601 26.5578 11.5493C26.4993 11.7384 26.4788 11.9373 26.4976 12.1344C26.5163 12.3315 26.5739 12.5229 26.667 12.6977C26.7601 12.8724 26.8869 13.027 27.04 13.1525L31.6575 17L27.04 20.8475C26.8869 20.973 26.7601 21.1276 26.667 21.3023C26.5739 21.477 26.5163 21.6685 26.4976 21.8656C26.4788 22.0627 26.4993 22.2615 26.5578 22.4507C26.6162 22.6399 26.7116 22.8156 26.8383 22.9677C26.965 23.1198 27.1206 23.2454 27.2961 23.3371C27.4715 23.4288 27.6634 23.4848 27.8607 23.502C28.0579 23.5192 28.2566 23.4971 28.4453 23.4372C28.634 23.3772 28.8089 23.2804 28.96 23.1525L34.96 18.1525C35.129 18.0117 35.265 17.8355 35.3583 17.6363C35.4516 17.4372 35.5 17.2199 35.5 17C35.5 16.78 35.4516 16.5628 35.3583 16.3636C35.265 16.1645 35.129 15.9883 34.96 15.8475ZM24.5125 4.58999C24.3274 4.52265 24.1308 4.49245 23.9339 4.50112C23.7371 4.50978 23.5439 4.55714 23.3654 4.64048C23.1868 4.72382 23.0265 4.84152 22.8935 4.98686C22.7604 5.13219 22.6573 5.3023 22.59 5.48749L14.59 27.4875C14.4544 27.8613 14.4728 28.2736 14.6411 28.6339C14.8094 28.9942 15.1138 29.2729 15.4875 29.4087C15.6516 29.4693 15.8252 29.5002 16 29.5C16.308 29.5 16.6085 29.4053 16.8608 29.2286C17.1131 29.052 17.3048 28.8019 17.41 28.5125L25.41 6.51249C25.4774 6.32733 25.5076 6.13071 25.4989 5.93388C25.4903 5.73704 25.4429 5.54384 25.3596 5.36531C25.2762 5.18679 25.1585 5.02643 25.0132 4.89339C24.8678 4.76036 24.6977 4.65726 24.5125 4.58999Z" stroke="#16181D" stroke-width="8" mask="url(#path-1-outside-1_2148_1660)"/>
</svg>
